<?xml version="1.0" standalone="no"?>
<svg xmlns="http://www.w3.org/2000/svg" width="128" height="128" viewBox="0 0 72 72">
  <g>
    <path fill="#a259e6" d="M37.008,3.5h-1.796C21.561,3.5,10.5,14.228,10.5,27.512v33.716c0,3.696,3.273,7.271,6.785,7.271h0.333c3.79,0,5.882-3.785,5.882-7.271v-2.996c0-1.235,1.84-1.731,3.114-1.731h0.333c0.754,0,2.553,0.097,2.553,1.731v2.996c0,3.401,2.619,7.271,6.443,7.271h0.333c3.697,0,6.224-3.798,6.224-7.271v-2.996c0-1.433,1.797-1.731,2.771-1.731h0.334c1.399,0,1.895,0.36,1.895,1.731v2.996c0,3.629,3.495,7.271,7.102,7.271h0.334c3.73,0,6.564-3.877,6.564-7.271V27.512C61.5,14.228,50.486,3.5,37.008,3.5z"/>
    <path fill="#fff" d="M23.794,23.574c-3.221,0-5.84,2.62-5.84,5.84s2.619,5.84,5.84,5.84c3.22,0,5.84-2.62,5.84-5.84S27.014,23.574,23.794,23.574z M23.794,33.254c-2.117,0-3.84-1.723-3.84-3.84c0-2.117,1.723-3.84,3.84-3.84s3.84,1.723,3.84,3.84C27.634,31.531,25.911,33.254,23.794,33.254z"/>
    <path fill="#fff" d="M38.529,23.574c-3.221,0-5.84,2.62-5.84,5.84s2.619,5.84,5.84,5.84c3.22,0,5.84-2.62,5.84-5.84S41.749,23.574,38.529,23.574z M38.529,33.254c-2.117,0-3.84-1.723-3.84-3.84c0-2.117,1.723-3.84,3.84-3.84s3.84,1.723,3.84,3.84C42.369,31.531,40.646,33.254,38.529,33.254z"/>
  </g>
</svg>